# xmcd
#
# Track frame offsets:
#	182
#	14247
#	29235
#	42010
#	58440
#	75317
#	92185
#	104977
#	120950
#	135080
#	147197
#	162727
#
# Disc length: 2383 seconds
#
# Revision: 0
# Processed by: cddbd v1.4b42PL0 Copyright (c) Steve Scherf et al.
# Submitted via: audiograbber 1.80
#
DISCID=ab094d0c
DTITLE=The Derailers - Jackpot
DYEAR=1900
DGENRE=
TTITLE0=My Heart's Ready
TTITLE1=This Big City
TTITLE2=I'm Your Man
TTITLE3=Where Ya Been
TTITLE4=Lies, Lies, Lies
TTITLE5=Vision To Dream On
TTITLE6=Jackpot
TTITLE7=Swan Song
TTITLE8=She Left Me Cold
TTITLE9=100% Pure Wool
TTITLE10=Tarnished Love
TTITLE11=Desperate Ways
EXTD=
EXTT0=
EXTT1=
EXTT2=
EXTT3=
EXTT4=
EXTT5=
EXTT6=
EXTT7=
EXTT8=
EXTT9=
EXTT10=
EXTT11=
PLAYORDER=
